<?xml version="1.0" encoding="utf-8"?>
<!-- Generator: Adobe Illustrator 27.9.0, SVG Export Plug-In . SVG Version: 6.00 Build 0)  -->
<svg version="1.1" id="Layer_1" xmlns="http://www.w3.org/2000/svg" xmlns:xlink="http://www.w3.org/1999/xlink" x="0px" y="0px"
	 viewBox="0 0 566.9 566.9" style="enable-background:new 0 0 566.9 566.9;" xml:space="preserve">
<style type="text/css">
	.st0{fill:#3C1053;}
	.st1{fill:#FFFFFF;}
	.st2{fill:#C1A9D2;}
</style>
<g>
	<g>
		<path class="st0" d="M297.7,518.7c67.1-0.7,140.5,7.8,203.7,26.4l7.4,1.8c7.4-5.7,15.6-12,23-17.7v-33l0.1-40.7c0,0,0,0,0,0
			l-2.2-2.8c-3.5-4.5-7.1-9.1-10.6-13.5l-3.4-4.3c0,0,0,0,0,0l-5.3-1.3c-9.1-2.2-18.4-4.3-27.5-6.3l-7.4-1.6l-20.1-3.9l-5.7-1
			l-6.5-1.1c0,0,0,0,0,0v-31.8c0,0,0,0,0,0c11.5-1.8,24.2-10.1,30.2-15.1c8.8-7.3,22.2-25,23.4-26.6c0,0,0-0.1,0,0l-7.2,3.7
			c0,0-0.1,0,0,0c2.1-5.9,3.6-9.2,7.8-18.1c4-8.5,16.2-20.5,17.3-21.5c0,0,0-0.1,0-0.1c-6.8,1.7-17.5,6.1-22.3,7.9c0,0,0,0,0,0
			c0.7-1.5,1.5-2.9,2.2-4.4c0,0,0,0,0,0c4.9-1.9,10-7.5,16.4-17.6c4.3-6.7,6.3-23.9,6.5-25.6c0,0,0,0-0.1,0l-2.9,4.7
			c0,0-0.1,0-0.1,0c-0.2-4.7-0.2-7.5,0.1-14.9c0.2-7.1,4-18.9,4.4-20.2c0,0,0-0.1-0.1,0c-1.9,1.9-4.2,4.7-6.3,7.3c0,0-0.1,0-0.1,0
			c0.6-7.2,0.9-14.4,0.8-21.8c-0.3-18.3-8.3-52.3-9.4-56.9c0,0-0.1,0-0.1,0c5.9,45.4-9.8,95-42.9,136.3c0,0-0.1,0-0.1,0
			c12.2-23.3,19.4-49.2,20-76.1c0.4-15.6-5.4-44.2-6.3-48.3c0,0-0.1,0-0.1,0c4.7,50.5-24,108.6-76.3,149.6c0,0-0.1,0,0,0
			c20.8-24.8,33.7-55.6,34.5-88.4c0.3-12.3-4.3-35-5-38.6c0,0-0.1,0-0.1,0c4.1,44.7-24.4,96.9-75.2,129.7
			c-13.5,8.8-27.5,15.4-41.6,20.1c0,0-0.1,0,0-0.1c36.3-17.5,62.1-53,63-92.7c0.2-8.6-2.9-24.3-3.5-27.3c0,0-0.1,0-0.1,0
			c2.9,31.8-17.4,68.8-53.5,92.2c-21.4,13.9-44.8,20.5-65.8,20.2c0,0,0,0,0,0c-19.3-35.2,17.1-55.8,17.2-55.9c0,0,0,0,0,0l24.9-8
			c0,0,0,0,0,0c-0.3-0.5-4.2-8.4-16.7-9.7c0,0,0,0,0,0c-0.3-0.3-21-21-43.3-11.4c-22.5,9.6-36.1,37.1-39.3,44.1
			c-1,2.2-1.8,4-3.1,6.9c0,0,0,0-0.1,0c-17.1-34.9,3.2-84.4,47.6-113.2c32.8-21.3,70.2-25.3,96.9-13.6h0
			c-17.3-11.9-39.2-18.3-63.2-17c-38.5,2.1-72.6,23.6-91.4,53.8c0,0-0.1,0-0.1,0c12.7-25.1,33.8-48.8,61.5-66.8
			c46.1-29.9,98.7-35.5,136.2-19.1l0.1,0c-24.3-16.7-55.1-25.8-88.9-24c-17.7,1-34.7,4.8-50.5,11.1c1.3-0.9,2.5-1.7,3.8-2.6
			C300.3,82.4,366,75.3,412.8,95.8l0.1,0c-30.4-20.9-68.9-32.2-111-29.9c-10.1,0.5-19.9,1.9-29.6,3.9c-0.1-0.2,0-0.1-0.1-0.3
			c54.8-24.7,113.5-24.8,158.3-2.9l0.1,0c-34-25.1-76.2-40-121.7-40.2c0,0,0,0,0,0c1.3-2.2,2.5-4.4,3.4-6.3c0,0,0-0.1,0,0
			c-0.8,0.4-8.9,4-18,6.8c0,0,0,0,0,0c-9.5,0.6-18.9,1.9-28,3.8c0,0,0,0,0,0c-5.5,0.2-9.5,0.2-15,0.1c0,0,0,0,0-0.1l6.2-6.5
			c0,0,0-0.1,0-0.1c-1.9,0.5-29.8,7.8-41.4,14.5c-6.8,3.9-17.8,12.4-22.8,22.5c0,0,0,0,0,0c-6.1,4.1-12.1,8.5-17.7,13.2
			c0,0-0.1,0-0.1,0c0.7-6.8,1.4-14.4,1.4-19.9c0,0,0,0-0.1,0c-0.9,1.7-12.2,22.5-21.7,31.2c-9.9,9.1-13.6,12.3-20.3,17.4
			c0,0-0.1,0-0.1,0l2.4-10.9c0,0,0-0.1-0.1,0c-1.4,1.9-19.6,26.7-26,41.1c-5.9,13.2-15.4,44.6-4.4,59.1c0,0,0,0,0,0
			c-0.3,1.8-0.6,3.7-0.9,5.6c0,0,0,0-0.1,0c-3.2-4.4-13-19.9-19.8-27.8c0,0-0.1,0-0.1,0c0.4,1.9,5.3,25,3.8,37.7
			c-1.7,13.2-2.4,18-4.2,26.3c0,0,0,0-0.1,0l-5.3-9.9c0,0-0.1,0-0.1,0c-0.1,2.2-0.7,34.1,6.8,48.1c9,16.6,16.8,27.8,24.8,34.6
			c-0.3-0.2-0.7-0.4-1-0.6c0,0,0,0,0,0c0,0-5.6-5.3-8.1-7.3c0,0,1.2,2.2,1.9,3.3c0.6,1.1-19.3-9.7-30.7-13.6c0,0-0.1,0,0,0.1
			c1.2,1.4,15.6,18,19.9,29.3c4.4,11.8,5.9,16.1,8,23.8c0,0,0,0.1,0,0l-8.9-5.5c0,0-0.1,0,0,0c1.2,1.9,16.6,26,27.1,36.3
			c2.6,2.6,6,5.7,10.4,9l0,0.3v37.6c0,0,0-0.6,0-0.6c-4.5,0.6-24.1,3.8-33,5.7c-12.8,2.7-30.6,7-43.5,10.1c0,0,0,0,0,0l-18.3,24
			c0,0,0,0,0,0v70.5l0,0l23,17.6l0,0c4.2-1.1,13.3-3.3,17.5-4.3C148.3,525.2,222.9,517.8,297.7,518.7"/>
		<g>
			<path class="st1" d="M102.3,440.2v14.7c-10.1,2-20.2,4.3-30.2,6.7v17.4c8.2-1.9,16.4-3.8,24.6-5.5c0,4.8,0,9.5,0,14.3
				c-8.2,1.8-16.4,3.6-24.6,5.6c0,11.5,0,23-0.1,34.5c-5.4,1.3-10.7,2.6-16,4c0-27,0-54-0.1-81C71.3,446.9,86.8,443.3,102.3,440.2
				L102.3,440.2z"/>
			<path class="st1" d="M112.4,438.2c5.4-1,10.8-2,16.2-3v81c-5.4,0.9-10.8,1.9-16.2,3V438.2z"/>
			<path class="st1" d="M178.4,479.5c3.2-3.6,6.4-7.1,9.6-10.7c0-10.4,0-20.7,0-31.1c-3.6-3.2-7.2-6.4-10.8-9.5
				c-12.8,1.5-25.6,3.3-38.3,5.4c0,27,0,54,0,81c5.5-0.9,11-1.7,16.4-2.5c0-9.6,0-19.1-0.1-28.7c2.2-0.3,4.3-0.6,6.5-0.9
				c4.2,9,8.4,18.1,12.5,27.1c6-0.7,12.1-1.4,18.1-2C187.9,498.1,183.2,488.8,178.4,479.5z M171.7,462.9c-1.2,1.3-2.4,2.6-3.6,3.9
				c-4.2,0.6-8.4,1.1-12.7,1.7v-22.8c4.3-0.6,8.5-1.2,12.8-1.7c1.1,1,2.3,2,3.4,3V462.9z"/>
			<path class="st1" d="M249.4,422.5v14.7c-10.6,0.4-21.2,1-31.8,1.8v17.4c8-0.6,15.9-1.1,23.9-1.5v14.5c-8,0.4-16,0.8-23.9,1.4
				v19.8c10.6-0.8,21.2-1.4,31.8-1.8c0,4.9,0,9.8-0.1,14.6c-16.1,0.6-32.1,1.7-48.1,3.2c0-2,0-4-0.1-6v-75
				C217.2,424.2,233.3,423.1,249.4,422.5L249.4,422.5z"/>
			<path class="st1" d="M309,454.6c0-7.3,0-14.6-0.1-21.9c-3.6-3.7-7.2-7.3-10.8-10.9c-12.8-0.2-25.7,0-38.5,0.3v81
				c12.9-0.4,25.9-0.5,38.8-0.3c3.5-3.4,7-6.9,10.5-10.2v-24.6c-2.2-2.3-4.5-4.5-6.8-6.8C304.5,458.9,306.8,456.8,309,454.6z
				 M276.1,437c4.2,0,8.5-0.1,12.7,0c1.2,1.1,2.4,2.3,3.6,3.5v9.1c-1.1,1.2-2.3,2.3-3.4,3.5c-4.3,2.2-8.6,4.4-12.9,6.7V437z
				 M292.5,484.9c-1.2,1.2-2.4,2.3-3.6,3.5c-4.3,0-8.5,0-12.8,0V476c4.3-2.3,8.6-4.5,12.9-6.7c1.1,1.2,2.3,2.3,3.5,3.5V484.9z"/>
			<path class="st1" d="M319.4,422.3c5.5,0.2,11,0.4,16.4,0.7v81c-5.5-0.3-11-0.5-16.4-0.7V422.3z"/>
			<path class="st1" d="M385.9,478.5c3.2-2.9,6.4-5.7,9.6-8.5c0-10.4,0-20.7,0.1-31.1c-3.6-4-7.2-8-10.8-11.9
				c-12.8-1.4-25.6-2.5-38.5-3.3c0,27,0,54,0,81c5.5,0.4,11,0.8,16.5,1.2c0-9.6,0-19.2,0-28.7c2.2,0.2,4.4,0.4,6.5,0.6
				c4.2,10,8.4,19.9,12.6,30c6,0.6,12.1,1.3,18.1,2.1C395.4,499.2,390.7,488.8,385.9,478.5z M379.2,460.4c-1.2,1-2.4,2.1-3.6,3.1
				c-4.2-0.4-8.5-0.8-12.7-1.1v-22.8c4.3,0.4,8.6,0.7,12.9,1.2c1.1,1.3,2.3,2.5,3.5,3.8V460.4z"/>
			<path class="st1" d="M446.8,435.7c-12.8-2.2-25.6-4.2-38.4-5.9c0,27,0.1,54,0.1,81c12.9,1.7,25.7,3.7,38.5,5.9
				c3.5-2.9,6.9-5.7,10.4-8.5v-59.8C453.9,444.1,450.4,439.9,446.8,435.7z M441.2,497.5c-1.2,1-2.4,1.9-3.6,2.9
				c-4.2-0.7-8.4-1.4-12.6-2v-51.5c4.3,0.6,8.5,1.3,12.8,2c1.1,1.3,2.3,2.7,3.4,4V497.5z"/>
			<path class="st1" d="M506.5,448.2c3.5,4.5,7,9,10.6,13.5c0,4.5,0,9,0,13.5c-5.4-1.4-10.7-2.7-16.1-4v-6.8
				c-0.9-1.2-1.9-2.4-2.8-3.5c-3.4-0.8-6.8-1.6-10.2-2.3c-1,0.8-2,1.6-3,2.4v10c10.3,7.8,20.6,15.8,30.9,24v25.5
				c-3.6,2.7-7.2,5.5-10.7,8.3c-9-2.2-18-4.2-27-6.1c-3.5-4.3-7.1-8.6-10.6-12.9c0-4.6,0-9.2,0-13.8c5.4,1.1,10.8,2.2,16.2,3.3
				c0,2.3,0,4.6,0.1,6.9c1,1.2,1.9,2.4,2.9,3.6c3.4,0.7,6.8,1.5,10.2,2.2c1-0.8,2-1.6,3.1-2.4V500c-10.3-8-20.7-15.8-31-23.5v-26
				c3.6-2.9,7.1-5.7,10.7-8.6C488.5,443.9,497.5,446,506.5,448.2L506.5,448.2z"/>
		</g>
	</g>
	<g>
		<path class="st2" d="M157.3,407.6c0.4-0.5,0.8-0.9,1.2-1.4v-17.8c-0.4-0.3-0.7-0.6-1.1-1c-1.3,0.2-2.7,0.4-4,0.7
			c-0.4,0.5-0.8,0.9-1.2,1.4v17.8c0.4,0.3,0.7,0.6,1.1,1C154.6,408,156,407.8,157.3,407.6 M160.6,381.2c1.4,1.2,2.8,2.4,4.2,3.5
			c0,7.7,0,15.5,0,23.2c0,0-0.1,0.1-0.1,0.1c0.9,0.8,1.8,1.5,2.7,2.3c-1.4,1.6-2.7,3.1-4.1,4.7c-0.9-0.8-1.8-1.5-2.7-2.3
			c0,0,0,0,0,0c-3.5,0.6-7.1,1.1-10.6,1.7c-1.4-1.2-2.8-2.3-4.2-3.5v-23.2c1.4-1.6,2.8-3.3,4.2-4.9
			C153.6,382.3,157.1,381.8,160.6,381.2"/>
		<path class="st2" d="M194.5,376.7c0,9.2,0,18.4,0,27.7c-1.3,1.5-2.7,3-4,4.5c-3.6,0.4-7.1,0.9-10.7,1.3c-1.4-1.2-2.8-2.4-4.1-3.6
			V379c2.1-0.3,4.2-0.6,6.3-0.8V403c0.4,0.3,0.7,0.7,1.1,1c1.3-0.2,2.7-0.3,4-0.5c0.4-0.4,0.8-0.9,1.1-1.3v-24.8
			C190.3,377.2,192.4,376.9,194.5,376.7"/>
		<path class="st2" d="M223.7,373.9v5.7c-4.1,0.3-8.2,0.7-12.4,1c0,2.3,0,4.5,0,6.8c3.1-0.3,6.2-0.6,9.3-0.8v5.7
			c-3.1,0.2-6.2,0.5-9.3,0.8c0,2.6,0,5.2,0,7.7c4.1-0.4,8.2-0.7,12.4-1c0,1.9,0,3.8,0,5.7c-6.2,0.5-12.5,1-18.7,1.7
			c0-0.8,0-1.6,0-2.3v-29.3C211.2,374.9,217.5,374.4,223.7,373.9"/>
		<path class="st2" d="M252.9,372.2v5.7c-4.1,0.2-8.3,0.4-12.4,0.6v6.8c3.1-0.2,6.2-0.3,9.3-0.5v5.7c-3.1,0.1-6.2,0.3-9.3,0.4v7.7
			c4.1-0.2,8.3-0.4,12.4-0.6c0,1.9,0,3.8,0,5.7c-6.3,0.3-12.5,0.6-18.8,1c0-0.8,0-1.6,0-2.3v-29.3
			C240.3,372.8,246.6,372.4,252.9,372.2"/>
		<path class="st2" d="M276.3,386.5v-14.9c2,0,3.9,0,5.9-0.1v31.7c-1.7,0-3.4,0-5.1,0c-2.6-5.4-5.3-10.9-7.9-16.3c0,5.5,0,11,0,16.4
			c-2,0-4,0.1-6,0.1v-31.7c1.8-0.1,3.6-0.1,5.5-0.1C271.2,376.6,273.8,381.6,276.3,386.5"/>
		<path class="st2" d="M308,371.8c1.4,1.5,2.8,2.9,4.2,4.4v5.3c-2.1-0.1-4.3-0.1-6.4-0.2v-2.6c-0.4-0.4-0.7-0.8-1.1-1.2
			c-1.4,0-2.7-0.1-4.1-0.1c-0.4,0.4-0.8,0.8-1.2,1.2c0,1.3,0,2.6,0,3.9c4.1,2.2,8.2,4.5,12.3,6.8v10c-1.4,1.4-2.9,2.8-4.3,4.2
			c-3.6-0.1-7.1-0.2-10.7-0.2c-1.4-1.4-2.8-2.8-4.2-4.2v-5.4c2.1,0,4.3,0,6.4,0.1c0,0.9,0,1.8,0,2.7c0.4,0.4,0.8,0.8,1.1,1.2
			c1.3,0,2.7,0,4,0.1c0.4-0.4,0.8-0.8,1.2-1.2v-3.8c-4.1-2.3-8.2-4.5-12.3-6.7v-10.2c1.4-1.4,2.8-2.8,4.2-4.2
			C300.8,371.6,304.4,371.7,308,371.8"/>
		<path class="st2" d="M328.7,372.5c0,8.7,0,17.3,0,26c4.1,0.2,8.3,0.5,12.4,0.8v5.7c-6.3-0.4-12.6-0.8-18.9-1v-31.7
			C324.4,372.3,326.5,372.4,328.7,372.5"/>
		<path class="st2" d="M358.7,393.8c1,0.1,1.9,0.2,2.9,0.3c-0.5-3-1-6.1-1.4-9.1C359.6,387.9,359.1,390.9,358.7,393.8 M363.9,375.2
			c1.9,10.7,3.8,21.5,5.7,32.2c-2.1-0.2-4.1-0.4-6.2-0.6c-0.3-2.3-0.6-4.6-0.9-6.8c-1.6-0.1-3.1-0.3-4.7-0.4
			c-0.4,2.2-0.8,4.4-1.1,6.7c-2.1-0.2-4.1-0.3-6.2-0.5c1.9-10.4,3.9-20.8,5.8-31.2C358.8,374.7,361.3,374.9,363.9,375.2"/>
		<path class="st2" d="M391.8,393.3v-14.9c2,0.3,3.9,0.5,5.9,0.8v31.7c-1.7-0.2-3.4-0.5-5.1-0.7c-2.6-5.8-5.3-11.6-7.9-17.4
			c0,5.5,0,11,0,16.4c-2-0.2-4-0.5-5.9-0.7v-31.7c1.8,0.2,3.6,0.4,5.4,0.6C386.8,382.6,389.3,387.9,391.8,393.3"/>
		<path class="st2" d="M414.5,407.5c1.6,0.3,3.3,0.5,4.9,0.8c0.5-0.4,0.9-0.8,1.4-1.1v-17.4c-0.4-0.5-0.9-1-1.3-1.6
			c-1.7-0.3-3.3-0.5-5-0.8V407.5z M423,383c1.4,1.6,2.8,3.3,4.2,4.9v23.4c-1.4,1.1-2.7,2.3-4.1,3.4c-5-0.8-10-1.6-15-2.4
			c0-10.6,0-21.1,0-31.7C413,381.3,418,382.1,423,383"/>
	</g>
</g>
</svg>
