<svg id="Firebirds_Logo" xmlns="http://www.w3.org/2000/svg" xmlns:xlink="http://www.w3.org/1999/xlink" viewBox="0 0 245.6 368.5"><style>.st0{fill:#f47920}.st1{fill:#0082ca}</style><symbol id="GIANTS_Netball_Stacked_" viewBox="-113.6 -161.2 227.1 322.5"><path class="st0" d="M5 30.6L1.7 26a9.77 9.77 0 0 0-8-4.2h-29.5l15.3 21.3c1.9 2.5 4.8 4 8 4h69.7l40.6 56.7H-7c-40.4 0-73.2-32.8-73.2-73.2 0-40.4 32.8-73.2 73.2-73.2l52.3 73-40.3.2z"/><path class="st1" d="M-46.1-49.2c-55.8 23.2-82.2 87.2-59.1 143s87.2 82.2 143 59.1c15.6-6.5 29.5-16.5 40.6-29.3h-86c-50.1 0-90.7-40.5-90.7-90.6 0-35.3 20.3-67.3 52.2-82.2zM102.7 75.4C115.7 16.4 78.3-42 19.3-55 12.9-56.4 6.5-57.2 0-57.5c1.4-.1 2.8-.1 4.2-.1C64.6-57.5 113.6-8.5 113.6 52c0 10.8-1.6 21.6-4.8 31.9l-6.1-8.5z"/><path class="st0" d="M109.4-95.9c0 4.7-2.5 6.7-6.9 8-10.1 2.8-14.5 4.1-15.2 4.3-.5.2-.8.4-.8 1v6.6c0 .4.3.7.7.8h10.4c.4 0 .7-.3.8-.7v-4.4h10.9v6.7c0 4.6-3.7 8.4-8.4 8.4H83.8c-4.6 0-8.4-3.7-8.4-8.3V-85c0-4.7 2.6-6.7 7.1-8 9.5-2.7 13.6-3.8 14.9-4.2.6-.2 1-.5 1-1v-7.1c0-.4-.3-.7-.7-.8H86.9c-.4 0-.7.3-.8.7v4.5H75.3v-6.8c0-4.6 3.7-8.4 8.3-8.5H101c4.6 0 8.4 3.7 8.4 8.4v11.9zM35.1-75.3h13.2v-40.9h11.1v40.9h13.1v10.1H35.1v-10.1zm-3.9 10.1H20.5V-95l-17 29.8H-7.3v-51H3.5v29.7l17-29.7h10.7v51zm-63.6-14.1l4.6-17H-37l4.6 17zm5.6 14.1H-38l-16.7-51h11.3l3.1 10.1h15.7l3.2-10.1h11.3l-16.7 51zm-30.7 0h-11.1v-51h11.1v51zm-35.1-32.9h7.2v-7.3c0-.4-.3-.7-.7-.8h-11.4c-.4 0-.7.3-.8.7v29.3c0 .4.3.7.7.8h11.4c.4 0 .7-.3.8-.7v-5.3h10.9v7.7c0 4.6-3.7 8.4-8.4 8.4h-18c-4.6 0-8.4-3.7-8.4-8.4v-34.2c0-4.6 3.7-8.4 8.3-8.5H-82.8c4.6 0 8.4 3.7 8.4 8.3v19.5h-18.1v-9.5z"/><path class="st1" d="M-78.1-161.2h-8.7l-13.7 24v-24h-8.6v41.1h8.6l13.7-24.1v24.1h8.7v-41.1zM-74.2-120.1h25.6v-8.1h-16.6v-7.8h15.3v-8.2h-15.3v-8.8h16.7v-8.2h-25.6v41.1zM-45.4-120.1h30.2v-8.1h-10.6v-33h-9v33h-10.6v8.1zM-12.2-120.1H8.9c3.6 0 6.4-2.9 6.5-6.4v-9.4c-.1-1.9-1.4-3.5-3.2-4.1 2-.3 3.4-2 3.5-4v-10.8c0-3.6-2.9-6.5-6.5-6.5h-21.3v41.2zM6-136.6c.3 0 .5.2.6.5v7.3c0 .4-.3.7-.6.7h-9.1v-8.5H6zm-9.2-16.6h9.4c.3 0 .6.2.6.6v8c0 .3-.2.6-.6.6h-9.4v-9.2zM52.8-161.2h-9.1l-2.6 8.1H28.5l-2.5-8.1h-9.1l13.5 41.1h9l13.4-41.1zm-21.7 16.1h7.4l-3.7 13.7-3.7-13.7zM55.5-120.1h8.9v-33h16.4v-8.1H55.5v41.1zM83.8-120.1h8.9v-33h16.4v-8.1H83.8v41.1z"/></symbol><path fill="none" d="M0 0h245.6v368.5H0z"/><use xlink:href="#GIANTS_Netball_Stacked_" width="227.1" height="322.5" x="-113.6" y="-161.2" transform="matrix(1.0801 0 0 -1.0801 122.666 178.425)" overflow="visible"/></svg>