<svg id="Firebirds_Logo" xmlns="http://www.w3.org/2000/svg" viewBox="0 0 481.9 368.5"><style>.st1{fill:#0c1c3d}.st2{fill:#782b8f}.st3{fill:#ffb719}.st4{fill:#fdb71d}.st5{fill:#fff}</style><path fill="none" d="M0 0h481.9v368.5H0z"/><path class="st1" d="M319 173.9c12.1-9.4 23.6-20.4 32.9-32.8-1.5-7.5-3.9-14.7-7-21.7l-51.8 44.2 25.9 10.3zM322.3 175.1l11.5 4.6-40 20.2h43.8c6.7-6.9 12.1-14.1 14.9-21.1.9-5.5 1.4-11.1 1.4-16.7 0-5.7-.5-11.4-1.4-17-8.7 11.3-18.9 21.3-30.2 30zM346.8 200c1.3-3.4 2.5-6.9 3.4-10.4-2.5 3.7-5.3 7.1-8.3 10.4h4.9zM164.9 153.8l31-14.8c-9.7-2.8-19.7-4.1-29.7-3.7-5.1 20.1-2.6 40 5 58.5l28.9-26.2-35.2-13.8z"/><path class="st1" d="M170.1 94.8c-9.7 11.5-16.9 25-20.9 39.5 13.4-3.2 33.9-3.1 50.8 2.8l48.8-23.3c-24-18.7-63.1-21.6-78.7-19zM163 135.4c-4.9.3-9.9 1-14.6 2.3-5 20.7-3.5 42.5 4.3 62.3h11.9l4.5-4.1c-8.4-20.5-10.6-41.9-6.1-60.5z"/><path class="st1" d="M289.4 87c-24.1-22.8-59-23.9-75.7-22.9-15.5 5.7-29.4 15-40.5 27.1 18.4-1.7 55.8 2.3 78.8 20.9l23.5-11.2c5.2-4.8 9.9-9.6 13.9-13.9zM304.5 73.3c-3.6 5.5-10.7 14-20.3 23.6l31.9-15.2c-3.7-3.1-7.6-5.9-11.6-8.4z"/><path class="st1" d="M301.8 71.6c-23.5-13.5-51.2-17.4-77.5-10.8 18.8.3 46.6 4.6 67.1 23.9 3.8-4.1 7.2-8.5 10.4-13.1z"/><path class="st2" d="M322.3 175.1l-3.3-1.3-25.9-10.3 51.8-44.1 137-116.9-165.8 79.1-31.9 15.3-8.8 4.1-23.5 11.3-3.1 1.4L200 137l-4.1 2-31 14.8 35.2 13.8-28.9 26.2-2.2 2-4.5 4.1h-.1l14 .1 39.2-35.7-29.2-11.4L421.5 41.7 275.2 166.5l35.9 14.2-38 19.3 20.7-.1 40-20.2z"/><path class="st3" d="M217.6 164.3L178.4 200z"/><path class="st4" d="M299.8 181.2l-26.3-10.4-7.1-2.9 5.8-4.9L391.7 61.1l-191.6 91.4 19.2 7.5 7 2.8-5.6 5-35.4 32.2h77.5z"/><path class="st5" d="M311.1 180.7l-38 19.3zM311.1 180.7l-35.9-14.2L421.5 41.7 188.4 152.9l29.2 11.4-39.2 35.7h6.9l35.4-32.2 5.6-5-7-2.8-19.2-7.5 191.6-91.4L272.2 163l-5.8 4.9 7.1 2.9 26.3 10.4-37 18.8h10.3z"/><path class="st1" d="M44 260.3l17.6-50.6H34.1l11.2 7.5-19.4 55.6h38.9l4.3-12.5zM107.1 209.7H79.5l11.2 7.5-19.3 55.6h13.7l22-63.1zM216.7 209.7H190l10.4 7.5-6.1 17.3h-18.2l8.7-24.8H171l-22 63.1h13.8l9-25.8H190l-9 25.8h13.7l22-63.1zM419.8 238.4H445l-8.3 24c-2 5.8-8.3 10.4-14 10.4h-22.3c-5.8 0-8.8-4.6-6.8-10.4l14.7-42.3c2-5.8 8.3-10.4 14.1-10.4h22.2c5.8 0 8.8 4.6 6.8 10.4l-2.7 7.7-14.2 2.3 2.4-6.9c.2-.6 0-1-.6-1h-13.9c-.6 0-1.1.4-1.3 1l-12.6 36.3c-.2.6 0 1 .6 1h14c.6 0 1.1-.4 1.3-1l5-14.2-9.6-6.9zM125.4 238.4h25.2l-8.4 24c-2 5.8-8.3 10.4-14 10.4h-22.3c-5.8 0-8.8-4.6-6.8-10.4l14.7-42.3c2-5.8 8.3-10.4 14.1-10.4h22.2c5.8 0 8.8 4.6 6.8 10.4l-2.7 7.7-14.2 2.3 2.4-6.9c.2-.6-.1-1-.6-1h-14c-.6 0-1.1.4-1.3 1l-12.6 36.3c-.2.6 0 1 .6 1h14c.6 0 1.1-.4 1.3-1l5-14.2-9.4-6.9zM315.6 209.7h-27.5l11.5 7.7-10.1 29.3-8.2-37H268l-21.9 63.1h13.2l12.8-36.8 8.3 36.8h13.2l22-63.1zM343.5 209.7H316.8l10.3 7.5-19.3 55.6h13.7l22-63.1zM231.5 222.2l-17.6 50.6h13.7l17.6-50.6h11.6l4.3-12.5h-37.9l-4.3 12.5zM401.5 209.7h-27.6l11.6 7.7-10.2 29.3-8.2-37h-13.2l-22 63.1h13.3L358 236l8.2 36.8h13.3l22-63.1z"/><path class="st2" d="M176.1 282.4l-5.6 16.3c-.6 1.8-2.3 3.1-4.2 3.2h-6.7c-1.7 0-2.6-1.4-2-3.2l5.6-16.3h4.1l-5.3 15.4c-.1.2 0 .3.2.3h4.2c.2 0 .3-.1.4-.3l5.3-15.4h4zM188 302h-4l-2.3-11.4-3.9 11.4h-4l6.7-19.5h3.9l2.3 11.5 3.9-11.5h3.9L188 302zM206 298.7c-.6 1.8-2.3 3.1-4.2 3.3h-6.4c-1.7 0-2.6-1.4-2-3.2l.9-2.6h4l-.6 1.7c0 .2 0 .3.2.3h3.9c.2 0 .3-.1.4-.3l.9-2.7c.1-.2 0-.3-.2-.4l-4.9-1.6c-1.5-.5-2.2-1.3-1.6-3l1.5-4.4c.6-1.8 2.3-3.1 4.2-3.2h6.2c1.7 0 2.6 1.4 2 3.2l-.9 2.6h-4l.6-1.6c.1-.2 0-.3-.2-.3H202c-.2 0-.3.1-.4.3l-.9 2.5c-.1.1 0 .3.1.3h.1l5.1 1.6c1.4.5 2.1 1.3 1.5 3l-1.5 4.5zM221.4 294H216l-2.8 8h-4.1l6.7-19.5h4.1l-2.6 7.7h5.4l2.6-7.7h4.1l-6.7 19.5h-4.2l2.9-8zM231.3 302h-4.1l6.7-19.5h4.1l-6.7 19.5zM153.3 298.7c-.6 1.8-2.3 3.1-4.2 3.2h-6.4c-1.7 0-2.6-1.4-2-3.2l.9-2.6h4l-.6 1.7c-.1.2 0 .3.2.3h3.9c.2 0 .3-.1.4-.3l.9-2.7c.1-.2 0-.3-.2-.4l-4.9-1.6c-1.5-.5-2.2-1.3-1.6-3l1.5-4.4c.6-1.8 2.3-3.1 4.2-3.2h6.2c1.7 0 2.6 1.4 2 3.2l-.9 2.6h-4l.6-1.6c.1-.2 0-.3-.2-.3h-3.8c-.2 0-.3.1-.4.3l-.9 2.5c-.1.1 0 .3.1.4h.1l5 1.6c1.4.5 2.1 1.3 1.5 3l-1.4 4.5zM249.9 302H246l-2.4-11.4-3.9 11.4h-4l6.7-19.5h3.9l2.3 11.5 3.9-11.5h3.9l-6.5 19.5zM261.1 282.4h11.7l-1.3 3.9h-7.6l-1.3 3.7h7l-1.3 3.9h-7l-1.5 4.2h7.6L266 302h-11.7l6.8-19.6zM296.2 294.6l-1.4 4.1c-.6 1.8-2.3 3.1-4.2 3.2h-6.5c-1.7 0-2.6-1.4-2-3.2l4.5-13.1c.6-1.8 2.3-3.1 4.2-3.2h6.5c1.7 0 2.6 1.4 2 3.2l-1.2 3.6h-4l.9-2.7c.1-.2 0-.3-.2-.3h-4c-.2 0-.3.1-.4.3l-3.9 11.2c-.1.2 0 .3.2.3h4c.2 0 .3-.1.4-.3l1-3.1h4.1zM307.9 302H301c-1.7 0-2.6-1.4-2-3.2l4.5-13.1c.6-1.8 2.3-3.1 4.2-3.2h7c1.7 0 2.6 1.4 2 3.2l-4.5 13.1c-.7 1.8-2.4 3-4.3 3.2zm4.2-15.6h-4.4c-.2 0-.3.1-.4.3l-3.9 11.2c-.1.2 0 .3.2.3h4.4c.2 0 .3-.1.4-.3l3.9-11.2c-.1-.2-.1-.4-.2-.3zM329.6 302h-4.2l.1-3.9h-5.8l-2.5 3.9H313l12.9-19.5h4.1l-.4 19.5zm-7.3-7.6h3.4l.5-6.5-3.9 6.5zM345 298.7c-.6 1.8-2.3 3.1-4.2 3.3h-6.4c-1.7 0-2.6-1.4-2-3.2l.9-2.6h4l-.6 1.7c-.1.2 0 .3.2.3h3.9c.2 0 .3-.1.4-.3l.9-2.7c.1-.2 0-.3-.2-.4l-4.9-1.6c-1.5-.5-2.2-1.3-1.6-3l1.5-4.4c.6-1.8 2.3-3.1 4.2-3.2h6.3c1.7 0 2.6 1.4 2 3.2l-.9 2.6h-4l.6-1.6c0-.2 0-.3-.2-.3h-3.8c-.2 0-.3.1-.4.3l-.9 2.5c-.1.1 0 .3.1.4h.1l5 1.6c1.4.5 2.1 1.3 1.5 3l-1.5 4.4zM353 282.4h13.8l-1.3 3.9h-4.9l-5.4 15.7h-4l5.4-15.6h-4.9l1.3-4zM114.9 281.9L55 312.1l33.4-30.2H75.1L0 350l134.7-68.1z"/><path class="st3" d="M114.9 281.9L55 312.1z"/><path class="st4" d="M105.1 281.9H95l-12.8 11.5z"/><path class="st5" d="M88.4 281.9L55 312.1zM114.9 281.9h-9.8l-22.9 11.5L95 281.9h-6.6L55 312.1z"/></svg>