<?xml version="1.0" encoding="utf-8"?>
<!-- Generator: Adobe Illustrator 27.2.0, SVG Export Plug-In . SVG Version: 6.00 Build 0)  -->
<svg version="1.1" id="Layer_1" xmlns="http://www.w3.org/2000/svg" xmlns:xlink="http://www.w3.org/1999/xlink" x="0px" y="0px"
	 viewBox="0 0 841.9 595.3" style="enable-background:new 0 0 841.9 595.3;" xml:space="preserve">
<style type="text/css">
	.st0{fill:#02B4D7;}
	.st1{fill:#6ED3E8;}
</style>
<g>
	<path class="st0" d="M125.7,483.2l31.2,33.1l31.1-33.1c2.5-2.5,3.4-3.2,4.7-3.2c1.8,0,2.8,1.4,2.8,4.2v69.5c0,1.9-1,2.9-3,2.9H178
		c-2,0-3-1-3-2.9v-29.8l-14.1,15.6c-2,2.2-2.9,2.8-4.1,2.8s-2.2-0.6-4-2.8l-14.1-15.6v29.8c0,2-0.9,2.9-3,2.9h-14.5
		c-2,0-2.9-0.9-2.9-2.9v-69.5c0-2.8,0.9-4.2,2.7-4.2C122.2,480,123.5,481,125.7,483.2z"/>
	<path class="st0" d="M247.3,484.7l34.9,68.4c0.4,0.8,0.6,1.3,0.6,1.8c0,1.1-0.9,1.6-2.6,1.6h-15.3c-2.7,0-3.9-0.8-5.2-3.4l-18-37
		l-17.9,37c-1.3,2.7-2.4,3.4-5.3,3.4h-14.5c-1.6,0-2.5-0.5-2.5-1.6c0-0.5,0.2-1.2,0.5-1.8l34.8-68.4c2-4.2,3.3-5.6,5.2-5.6
		C243.9,479.1,245,480.4,247.3,484.7z"/>
	<path class="st0" d="M261.3,479.6h15.3c2.7,0,3.9,0.8,5.2,3.4l18.1,37l17.8-37c1.4-2.7,2.6-3.4,5.3-3.4h14.7c1.6,0,2.5,0.5,2.5,1.5
		c0,0.5-0.2,1.2-0.6,1.9l-34.8,68.4c-2,4.2-3.3,5.6-5.2,5.6c-1.7,0-2.9-1.4-5.1-5.6l-35-68.4c-0.3-0.6-0.5-1.3-0.5-1.8
		C258.8,480.2,259.6,479.6,261.3,479.6z"/>
	<path class="st0" d="M393.6,479.6c2,0,3,1,3,2.9v12c0,2.2-0.9,2.9-3,2.9h-26.7c-1.4,0-1.7,0.4-1.7,1.7v7.5c0,1.3,0.3,1.6,1.7,1.6
		h23.2c2,0,2.9,1,2.9,3V523c0,2-0.9,2.9-2.9,2.9h-23.2c-1.4,0-1.7,0.4-1.7,1.7v7.9c0,1.3,0.3,1.7,1.7,1.7h26.8c2.2,0,3,0.8,3,2.9v12
		c0,1.9-1,2.9-3,2.9h-46.1c-2,0-2.9-0.9-2.9-2.9v-69.6c0-2,0.9-2.9,2.9-2.9H393.6z"/>
	<path class="st0" d="M435.2,479.6c22.9,0,34,8.1,34,25.4c0,8.9-4.1,15.5-12.4,19.5l16.3,27c0.4,0.8,0.6,1.3,0.6,1.8
		c0,1.1-0.9,1.6-2.7,1.6h-15.4c-3.1,0-4.2-0.6-5.8-3.3l-16.7-29.6c-0.3-0.8-0.5-1.3-0.5-1.6c0-0.8,0.8-1.3,2.3-1.6
		c7.9-1,13.3-4.7,13.3-11.5c0-7.2-4.6-10.4-14-10.4h-5.5c-1.4,0-1.7,0.3-1.7,1.7v53.5c0,2-0.9,2.9-3,2.9h-14.5c-2,0-2.9-0.9-2.9-2.9
		v-69.6c0-2,0.9-2.9,2.9-2.9H435.2z"/>
	<path class="st0" d="M497.9,479.6c2.2,0,3,0.9,3,2.9v69.6c0,2-0.9,2.9-3,2.9h-14.5c-2,0-2.9-0.9-2.9-2.9v-69.6c0-2,0.9-2.9,2.9-2.9
		H497.9z"/>
	<path class="st0" d="M577.4,546.4c-7.8,6.4-17.6,10.1-28.2,10.1c-22.9,0.4-40.9-16.9-40.5-38.8c-0.3-22.5,17.8-40,41.4-39.6
		c10.7,0,20.1,3.8,27.9,10.2c0.9,0.8,1.3,1.4,1.3,2.2c0,0.5-0.2,1.2-0.8,1.9l-7,9.9c-0.6,1-1.4,1.4-2.2,1.4c-0.5,0-1.2-0.3-2.2-0.9
		c-5.6-4-11.3-5.9-17.2-5.9c-11.6,0-20.1,8.4-20.1,20.5c0,12,8.5,20.4,20.1,20.4c6.6,0,12.3-2.3,17.5-6.1c0.9-0.6,1.6-1,2.3-1
		c0.6,0,1.3,0.4,1.9,1.3l6.9,9.9c0.4,0.6,0.6,1.3,0.6,1.8C579.1,544.6,578.6,545.4,577.4,546.4z"/>
	<path class="st0" d="M602.1,479.6c2.2,0,3,0.9,3,2.9v69.6c0,2-0.9,2.9-3,2.9h-14.5c-2,0-2.9-0.9-2.9-2.9v-69.6c0-2,0.9-2.9,2.9-2.9
		H602.1z M608,514.3l21.5-31.7c1.6-2.5,2.5-3,5.4-3h16.8c1.6,0,2.4,0.6,2.4,1.5c0,0.5-0.2,1.1-0.6,1.7l-24.1,33.5l25.1,35.4
		c0.5,0.8,0.8,1.3,0.8,1.8c0,0.9-0.9,1.4-2.5,1.4h-17.2c-3,0-3.9-0.4-5.5-2.9l-22.1-32.5c-0.6-1-1-1.8-1-2.5
		C606.9,516.3,607.2,515.3,608,514.3z"/>
	<path class="st0" d="M670.2,532c5.3,3.9,11.8,6.5,18.2,6.5c6.4,0,9.6-2,9.6-5.4c0-3.6-2.8-4.7-12.8-7.2
		c-15.6-3.8-23.8-10-23.8-23.3c0-15.5,12.1-24.5,29.1-24.5c10.2,0,19.3,3.2,27.1,9.6c0.9,0.6,1.3,1.4,1.3,2.3c0,0.8-0.2,1.4-0.8,2.2
		l-6.5,9.9c-0.6,1-1.3,1.4-2,1.4c-0.8,0-1.4-0.3-2-0.9c-5.8-4.2-11.4-6.4-16.9-6.4c-5.2,0-8.2,2.2-8.2,5.3c0.4,3.9,2.6,4.6,11.8,7
		c16.8,4,24.8,10.5,24.8,23.3c0,15.4-12.1,24.8-30.5,24.8c-11.1,0-20.7-3.6-28.1-9.5c-1.2-0.9-1.7-1.6-1.7-2.6c0-0.8,0.3-1.5,1-2.5
		l6.1-9.4c0.6-1.1,1.4-1.6,2.2-1.6C668.6,531,669.3,531.3,670.2,532z"/>
</g>
<g>
	<path class="st0" d="M223.2,432.5h5.1l8.1,19.2h0.1l8-19.2h5.1V458h-3.4v-20.9h-0.1l-8.6,20.9h-2.3l-8.6-20.9h-0.1V458h-3.4V432.5z
		"/>
	<path class="st0" d="M277.5,432.5h16.4v3.2h-13v7.6H293v3.2H281v8.1h13.6v3.2h-17V432.5z"/>
	<path class="st0" d="M321,432.5h3.4v22.2h11.7v3.2H321V432.5z"/>
	<path class="st0" d="M361.2,432.5h8.8c1.1,0,2.1,0.1,3.1,0.4c0.9,0.3,1.8,0.7,2.4,1.2c0.7,0.5,1.2,1.2,1.6,2
		c0.4,0.8,0.6,1.7,0.6,2.8c0,1.5-0.4,2.7-1.2,3.6c-0.8,0.9-1.9,1.6-3.2,2v0.1c0.8,0,1.5,0.2,2.2,0.6c0.7,0.3,1.3,0.8,1.7,1.4
		c0.5,0.6,0.9,1.2,1.2,2c0.3,0.7,0.4,1.5,0.4,2.4c0,1.1-0.2,2.2-0.7,3c-0.5,0.9-1.1,1.6-1.9,2.2c-0.8,0.6-1.8,1.1-2.8,1.4
		c-1.1,0.3-2.2,0.5-3.5,0.5h-8.7V432.5z M364.6,443.1h4.7c0.6,0,1.3-0.1,1.8-0.2s1.1-0.4,1.5-0.7c0.4-0.3,0.8-0.7,1-1.2
		c0.2-0.5,0.4-1.1,0.4-1.8c0-1-0.3-1.9-1-2.6c-0.6-0.7-1.7-1.1-3.1-1.1h-5.4V443.1z M364.6,454.9h5.1c0.5,0,1.1-0.1,1.7-0.2
		c0.6-0.1,1.2-0.3,1.8-0.6c0.6-0.3,1-0.8,1.4-1.3c0.4-0.5,0.6-1.3,0.6-2.2c0-1.5-0.5-2.6-1.5-3.4c-1-0.8-2.3-1.1-4-1.1h-5.1V454.9z"
		/>
	<path class="st0" d="M417,458.6c-1.9,0-3.7-0.3-5.4-1c-1.6-0.7-3-1.6-4.2-2.8c-1.2-1.2-2.1-2.6-2.7-4.2c-0.7-1.6-1-3.4-1-5.3
		c0-1.9,0.3-3.6,1-5.3c0.7-1.6,1.6-3,2.7-4.2c1.2-1.2,2.6-2.1,4.2-2.8c1.6-0.7,3.4-1,5.4-1s3.7,0.3,5.3,1c1.6,0.7,3,1.6,4.2,2.8
		c1.2,1.2,2.1,2.6,2.7,4.2c0.7,1.6,1,3.4,1,5.3c0,1.9-0.3,3.6-1,5.3c-0.7,1.6-1.6,3-2.7,4.2c-1.2,1.2-2.6,2.1-4.2,2.8
		C420.7,458.3,418.9,458.6,417,458.6z M417,455.4c1.5,0,2.8-0.3,3.9-0.8c1.2-0.5,2.2-1.3,3-2.2c0.8-0.9,1.5-2,1.9-3.2
		s0.7-2.5,0.7-3.9c0-1.4-0.2-2.7-0.7-3.9c-0.5-1.2-1.1-2.3-1.9-3.2c-0.8-0.9-1.8-1.6-3-2.2c-1.2-0.5-2.5-0.8-3.9-0.8
		c-1.5,0-2.8,0.3-3.9,0.8c-1.2,0.5-2.2,1.3-3,2.2c-0.8,0.9-1.5,2-1.9,3.2c-0.5,1.2-0.7,2.5-0.7,3.9c0,1.4,0.2,2.7,0.7,3.9
		c0.5,1.2,1.1,2.3,1.9,3.2c0.8,0.9,1.8,1.6,3,2.2C414.2,455.1,415.5,455.4,417,455.4z"/>
	<path class="st0" d="M459.7,432.5v15.6c0,0.8,0.1,1.6,0.3,2.5c0.2,0.8,0.6,1.6,1.1,2.3c0.5,0.7,1.2,1.3,2,1.8
		c0.8,0.5,1.8,0.7,3,0.7s2.2-0.2,3-0.7c0.8-0.5,1.5-1,2-1.8c0.5-0.7,0.9-1.5,1.1-2.3c0.2-0.9,0.3-1.7,0.3-2.5v-15.6h3.4v16.1
		c0,1.5-0.2,2.8-0.8,4c-0.5,1.2-1.2,2.3-2.1,3.1c-0.9,0.9-1.9,1.6-3.1,2s-2.5,0.7-3.9,0.7s-2.7-0.2-3.9-0.7s-2.2-1.2-3.1-2
		c-0.9-0.9-1.6-1.9-2.1-3.1c-0.5-1.2-0.8-2.6-0.8-4v-16.1H459.7z"/>
	<path class="st0" d="M503.5,432.5h8.9c1.6,0,3,0.2,4,0.7c1.1,0.4,1.9,1,2.5,1.7c0.6,0.7,1,1.5,1.3,2.3c0.2,0.8,0.4,1.7,0.4,2.5
		c0,0.8-0.1,1.6-0.4,2.3c-0.3,0.8-0.7,1.4-1.2,2c-0.5,0.6-1.2,1.1-2,1.5c-0.8,0.4-1.6,0.7-2.6,0.8l7.2,11.6h-4.3l-6.5-11.2h-3.8V458
		h-3.4V432.5z M506.9,443.7h4.5c0.7,0,1.3-0.1,2-0.2c0.7-0.1,1.2-0.3,1.8-0.6c0.5-0.3,0.9-0.7,1.2-1.2c0.3-0.5,0.5-1.2,0.5-2.1
		c0-0.9-0.2-1.6-0.5-2.1c-0.3-0.5-0.7-0.9-1.2-1.2c-0.5-0.3-1.1-0.5-1.8-0.6c-0.7-0.1-1.3-0.2-2-0.2h-4.5V443.7z"/>
	<path class="st0" d="M547,432.5h4.5l14,20.9h0.1v-20.9h3.4V458h-4.4l-14.1-20.9h-0.1V458H547V432.5z"/>
	<path class="st0" d="M597.1,432.5h16.4v3.2h-13v7.6h12.1v3.2h-12.1v8.1h13.6v3.2h-17V432.5z"/>
</g>
<g>
	<path class="st1" d="M695.7,27.8C695.7,27.8,695.7,27.8,695.7,27.8C695.7,27.8,695.7,27.8,695.7,27.8c-0.2-1.9-2.5-2.5-3.6-1
		c-53.7,79.2-161.8,158.9-176,169.1c-6.3,4.6-19.4,13-30.5,22.8c-11,9.6-20.5,20.9-21.5,32.9c-2,23.7,11.6,30.1,11.9,46.1
		c0.3,16-20.1,20.3-20.1,20.3v-20.6c0-2.7-0.8-4.1-2.6-4.1c-1.2,0-2.5,0.9-4.6,3.1l-30.1,31.8l-30.1-31.8c-2.1-2.2-3.3-3.1-4.6-3.1
		c-1.8,0-2.6,1.4-2.6,4.1v20.6c0,0-20.4-4.3-20.1-20.3c0.3-16,13.8-22.3,11.9-46.1c-1-11.9-10.5-23.2-21.5-32.9
		c-11.1-9.8-24.2-18.2-30.5-22.8c-14.2-10.3-122.3-89.9-176-169.1c-1-1.5-3.4-0.9-3.6,0.9c0,0,0,0,0,0c0,0,0,0,0,0
		c-0.4,7.7-0.3,22.8,4.2,41.6c0,0,0,0.1,0,0.1c0,0.1,0.1,0.3,0.1,0.4c7.9,32.6,29,76.3,83.4,112.2c79.9,52.7,109.8,66.9,118.7,86.7
		c2.3,5.2,3.2,10.8,3.1,17.6c-0.3,29.4,17.6,38.2,27.4,39.7c1.8,0.3,3.1,2,2.8,3.9c-0.3,1.8-2.1,3-4,2.7
		c-7.6-1.3-23.8-6.1-29.1-24.5c-7-24.4,0.8-37.7-23.7-56.2c-24.4-18.5-47-31.5-97-59.6c-44-24.7-50.6-27.2-59.1-31.6
		c-1.4-0.7-3,0.3-3.1,1.7c0,0,0,0.3,0,0.5c2.9,15.2,16.1,67.3,63,84.7c55.3,20.5,69.4,26.8,91.4,37.6c0,0,7,2.8,10.1,12.1
		c0.1,0.5,0.3,0.9,0.4,1.4c1.2,4.5,2,7.3,2.4,9.1c0.5,1.7-0.7,3.4-2.5,3.6c-1.3,0.1-2.5-0.7-3-1.9l-4.2-10.4
		c-1.4-3.5-4.2-6.3-7.8-7.7c-13.2-5.2-50.9-19.3-95.1-33.2c-1.5-0.5-2.9,1.1-2.2,2.6c0,0,0,0,0,0c4,8.5,9.8,15.2,15.8,20.6
		c1.3,1.2,2.6,2.3,4,3.3c1.1,0.9,2.2,1.7,3.4,2.5c8.8,6.1,18.8,10.4,29.3,12.8c7.6,1.7,18.8,4.2,27,5.8c10.5,2,19.8,4,26.2,12.6
		c1.8,2.5,3.4,5.4,4.6,9.1c1.6,4.6,4,8.9,6.7,12.7c9.1,12.8,22.6,22.1,38,25.2c0.9,0.2,4,0.8,5.5,1c1,0.1,1.9,0.3,2.8,0.4
		c0,4.9,0,17.8,0,21.1c0,2.5-0.9,4.7-1.5,6c-0.4,0.7-0.8,1.4-1.4,2c-0.7,0.7-1.4,1.4-2.3,2c-3.7,2.8-8.7,4.6-14.8,5.2
		c-5.2,0.5-9.1,0.5-12.9-0.1l18-19.4c0.6-0.6,0.7-1.5,0.3-2.2c-0.4-0.7-1.3-1.2-2.2-1l-5.5,1.1c-0.3,0.1-31.9,6.2-46.8-10.7
		l32.8-13.1c0.5-0.2,0.6-0.8,0.2-1.1c-1.9-1.5-3.6-3-5.3-4.7l0,0c-0.3-0.3-0.7-0.4-1.1-0.2L303,366c-0.5,0.2-1,0.7-1.1,1.2
		c-0.2,0.6-0.1,1.2,0.2,1.6l1,1.7c6.4,11,18.5,17.6,34.9,19.1c3.9,0.4,7.6,0.5,11.8,0.2l-13.4,14.5c-0.5,0.5-0.7,1.2-0.5,1.9
		c0.2,0.7,0.8,1.1,1.5,1.4c2.3,1.1,7.3,2.2,11.1,2.8c1.8,0.2,4.3,0.4,6.7,0.4c2.1,0,4.4-0.1,6.9-0.4c10.7-1.1,18.9-4.6,23.3-10.7
		c2.6-3.2,3.8-7.6,3.8-13.8c0-1.3,0-64.5,0-64.5s27.2,26.7,27.8,27.1c0.5,0.4,1,0.5,1.5,0.5c0,0,0.1,0,0.1,0c0.5,0,1-0.1,1.5-0.5
		c0.6-0.4,27.8-27.1,27.8-27.1s0,63.2,0,64.5c0,6.1,1.2,10.5,3.8,13.8c4.4,6.1,12.6,9.7,23.3,10.7c2.5,0.2,4.8,0.4,6.9,0.4
		c2.5,0,5-0.1,6.7-0.4c3.8-0.5,8.8-1.7,11.1-2.8c0.7-0.3,1.3-0.7,1.5-1.4c0.2-0.7,0-1.4-0.5-1.9l-13.4-14.5
		c4.2,0.2,7.9,0.1,11.8-0.2c16.5-1.5,28.6-8.2,34.9-19.1l1-1.7c0.3-0.5,0.4-1.1,0.2-1.6c-0.2-0.6-0.6-1-1.1-1.2l-35.8-14.3
		c-0.4-0.2-0.8-0.1-1.1,0.2l0,0c-1.7,1.7-3.5,3.2-5.3,4.7c-0.4,0.3-0.3,0.9,0.2,1.1l32.8,13.1c-15,16.8-46.5,10.7-46.8,10.7
		l-5.5-1.1c-0.8-0.2-1.8,0.3-2.2,1c-0.4,0.7-0.3,1.6,0.3,2.2l18,19.4c-3.9,0.6-7.7,0.6-12.9,0.1c-6.1-0.6-11.1-2.4-14.8-5.2
		c-0.8-0.6-1.6-1.3-2.3-2c-0.6-0.6-1-1.3-1.4-2c-0.6-1.3-1.5-3.5-1.5-6c0-3.2,0-16.1,0-21.1c0.9-0.1,1.8-0.2,2.8-0.4
		c1.5-0.2,4.5-0.8,5.5-1c15.4-3.1,28.9-12.4,38-25.2c2.7-3.8,5.2-8.1,6.7-12.7c1.3-3.7,2.8-6.7,4.6-9.1c6.4-8.7,15.7-10.7,26.2-12.6
		c8.2-1.5,19.4-4,27-5.8c10.5-2.4,20.5-6.6,29.3-12.8c1.2-0.8,2.3-1.6,3.4-2.5c1.3-1,2.7-2.1,4-3.3c6-5.3,11.7-12.1,15.8-20.6
		c0,0,0,0,0,0c0.7-1.5-0.7-3.1-2.2-2.6c-44.2,13.9-81.9,28-95.1,33.2c-3.5,1.4-6.4,4.2-7.8,7.7l-4.2,10.4c-0.5,1.2-1.7,2.1-3,1.9
		c-1.8-0.2-2.9-1.9-2.5-3.6c0.5-1.8,1.3-4.6,2.4-9.1c0.1-0.5,0.3-1,0.4-1.4c3.1-9.3,10.1-12.1,10.1-12.1
		c22.1-10.8,36.2-17.1,91.4-37.6c47-17.4,60.1-69.4,63-84.7c0-0.2,0-0.5,0-0.5c-0.1-1.4-1.7-2.4-3.1-1.7c-8.5,4.4-15.2,7-59.1,31.6
		c-50,28.1-72.6,41-97,59.6c-24.4,18.5-16.7,31.8-23.7,56.2c-5.3,18.4-21.5,23.3-29.1,24.5c-1.8,0.3-3.7-0.9-4-2.7
		c-0.3-1.9,1-3.6,2.8-3.9c9.8-1.5,27.8-10.3,27.4-39.7c-0.1-6.8,0.8-12.4,3.1-17.6c8.9-19.8,38.8-34.1,118.7-86.7
		c54.4-35.9,75.5-79.6,83.4-112.2c0-0.1,0.1-0.3,0.1-0.4c0,0,0-0.1,0-0.1C696,50.6,696.1,35.6,695.7,27.8z"/>
	<path class="st0" d="M311.9,223.2c-36.9-27.4-99.7-69.7-132.4-111.6C152.3,76.8,144,38.5,142,27.2c0-0.1,0-0.2-0.1-0.3
		c-0.2,0.3-0.3,0.6-0.3,0.9c0,0,0,0,0,0c0,0,0,0,0,0c-0.4,7.7-0.3,22.8,4.2,41.6c0,0,0,0.1,0,0.1c0,0.1,0.1,0.3,0.1,0.4
		c7.9,32.6,29,76.3,83.4,112.2c79.9,52.7,109.8,66.9,118.7,86.7C345.2,258.6,338.8,243.2,311.9,223.2z"/>
	<path class="st0" d="M249.4,283.2c-17.5-6.9-31.3-22.3-31.3-22.3c4,8.5,9.8,15.2,15.8,20.6c1.3,1.2,2.6,2.3,4,3.3
		c1.1,0.9,2.2,1.7,3.4,2.5c8.8,6.1,18.8,10.4,29.3,12.8c7.6,1.7,18.8,4.2,27,5.8c10.5,2,19.8,4,26.2,12.6
		C315.3,297.2,266.9,290.2,249.4,283.2z"/>
	<g>
		<path class="st0" d="M269.1,251.5c-28.3-13-40.9-15.9-67.5-41.4c-25.7-24.6-35-46.9-35.6-48.5c0-0.1,0-0.1,0-0.1l0,0
			c-0.3,0.3-0.4,0.7-0.5,1.2c0,0,0,0.3,0,0.5c2.9,15.2,16.1,67.3,63,84.7c55.3,20.5,69.4,26.8,91.4,37.6c0,0,7,2.8,10.1,12.1
			c0.1,0.5,0.3,0.9,0.4,1.4C325.5,276.8,297.4,264.4,269.1,251.5z"/>
	</g>
	<path class="st0" d="M525.5,223.2c36.9-27.4,99.7-69.7,132.4-111.6c27.2-34.8,35.6-73.2,37.5-84.5c0-0.1,0-0.2,0.1-0.3
		c0.2,0.3,0.3,0.6,0.3,0.9c0,0,0,0,0,0c0,0,0,0,0,0c0.4,7.7,0.3,22.8-4.2,41.6c0,0,0,0.1,0,0.1c0,0.1-0.1,0.3-0.1,0.4
		c-7.9,32.6-29,76.3-83.4,112.2c-79.9,52.7-109.8,66.9-118.7,86.7C492.1,258.6,498.5,243.2,525.5,223.2z"/>
	<path class="st0" d="M588,283.2c17.5-6.9,31.3-22.3,31.3-22.3c-4,8.5-9.8,15.2-15.8,20.6c-1.3,1.2-2.6,2.3-4,3.3
		c-1.1,0.9-2.2,1.7-3.4,2.5c-8.8,6.1-18.8,10.4-29.3,12.8c-7.6,1.7-18.8,4.2-27,5.8c-10.5,2-19.8,4-26.2,12.6
		C522,297.2,570.4,290.2,588,283.2z"/>
	<g>
		<path class="st0" d="M568.2,251.5c28.3-13,40.9-15.9,67.5-41.4c25.7-24.6,35-46.9,35.6-48.5c0-0.1,0-0.1,0-0.1l0,0
			c0.3,0.3,0.4,0.7,0.5,1.2c0,0,0,0.3,0,0.5c-2.9,15.2-16.1,67.3-63,84.7c-55.3,20.5-69.4,26.8-91.4,37.6c0,0-7,2.8-10.1,12.1
			c-0.1,0.5-0.3,0.9-0.4,1.4C511.8,276.8,539.9,264.4,568.2,251.5z"/>
	</g>
</g>
</svg>
