<svg id="Firebirds_Logo" xmlns="http://www.w3.org/2000/svg" viewBox="0 0 382.7 368.5"><style>.st1{fill:#fff}.st2{fill:#0093d0}.st3{fill:#ee3124}</style><path fill="none" d="M0 0h382.7v368.5H0z"/><path class="st1" d="M377 140.7c-10.9-32.8-36.3-60.4-71.4-77.9-69.1-34.4-169-26.8-232-1.5-5.2 2.2-29.2 12.4-40.9 23-2.1 1.6-4.2 3.2-6.2 5a79.253 79.253 0 0 0-26.4 55c-.1 2-.1 3.9-.1 5.9V295c0 11 8.9 19.9 19.9 19.9h342.9c11 0 19.9-8.9 19.9-19.9V178.2c.3-12.7-1.6-25.4-5.7-37.5"/><path class="st2" d="M207.1 220.6v-30.7c0-10.6-6-17.6-16.4-17.6-10.1 0-17.9 7.7-17.9 18.5v29.9h-5V169h5v9.6c3.4-6.1 9.2-10.8 18.6-10.8 13.1 0 20.7 8.9 20.7 21.3v31.6h-5zM246.7 221.6c-7.7-.1-15.1-2.8-21.2-7.5l2.9-4c5.7 4.4 12 6.8 18.5 6.8 7 0 12.5-3.9 12.5-9.8v-.2c0-6.1-6.5-8.3-13.7-10.3-8.4-2.4-17.7-5-17.7-14.2v-.2c0-8.3 7-14.3 17-14.3 6.5.1 12.9 2.1 18.3 5.7l-2.6 4.2c-4.7-3.2-10.2-5-15.9-5.2-7.1 0-11.8 3.8-11.8 9v.2c0 5.8 7 7.9 14.4 10 8.3 2.3 17 5.4 17 14.5v.2c0 9.1-7.9 15-17.7 15.1M332.7 221h-4.2L313 176.7 297.5 221h-4.2l-19-52.1h5.6l15.6 45.4 15.6-45.6h4l15.6 45.6 15.6-45.4h5.3z"/><path class="st3" d="M36.4 308.9c-11.5 0-20.4-3.8-29.1-11.5l3.5-4c7.9 7.3 15.3 10.6 25.9 10.6 10.8 0 18.3-6 18.3-14.3v-.2c0-7.6-4-12.1-20.4-15.4-17.3-3.5-24.3-9.4-24.3-20.3v-.2c0-10.7 9.8-19 23.2-19 10.5 0 17.4 2.9 24.7 8.8l-3.4 4.2c-5.9-5.4-13.6-8.3-21.5-8.1-10.6 0-17.6 6.1-17.6 13.6v.2c0 7.6 3.9 12.3 21 15.8 16.7 3.4 23.7 9.4 23.7 19.9v.2c-.1 11.6-10.1 19.7-24 19.7M142.3 308.4h-4.4l-21.1-62.7-21.1 62.7h-4.3l-26.2-72.7h6l22.6 64.2 21.1-64.4h4.2l21.1 64.4 22.7-64.2h5.5zM180.4 235.7h5.4v72.1h-5.4zM208.6 240.7v29.5h40.8v5h-40.8v32.7h-5.4v-72.2h50.9v5zM291.6 240.7v67.2h-5.4v-67.2H261v-5h55.7v5zM351.2 308.9c-11.5 0-20.4-3.8-29-11.5l3.5-4c7.9 7.3 15.3 10.7 25.9 10.7 10.8 0 18.2-6.1 18.2-14.3v-.2c0-7.6-4-12.1-20.4-15.4-17.3-3.5-24.3-9.4-24.3-20.3v-.2c0-10.7 9.8-19 23.2-19 10.5 0 17.4 2.9 24.7 8.8l-3.4 4.2c-5.9-5.4-13.6-8.3-21.6-8.1-10.6 0-17.6 6.1-17.6 13.6v.2c0 7.6 3.9 12.3 21 15.8 16.7 3.4 23.7 9.4 23.7 19.9v.2c0 11.6-10 19.6-23.9 19.6M302.3 69.3C235 35.7 136.6 43.8 76.3 68c2.6-.1 5.2-.1 7.8.1 44.5 2.5 78.6 40.7 76.1 85.2-.3 5.4-1.1 10.7-2.5 15.9 36.7-64 99-73 147.3-55.7 27.3 9.8 77.1 43.1 59.3 107.5 28.8-57.6-.7-121.1-62-151.7"/><path class="st2" d="M148.3 125.7l-27.8 82.7c26.7-18.2 38.1-52 27.8-82.7M39 173.1c-4.1-25.4-4.2-39.7-4.2-40.3v-5.5H106l39-9.6c-17.1-36.1-60.3-51.5-96.4-34.4s-51.5 60.3-34.4 96.4c17.1 36.1 60.3 51.5 96.4 34.4l1.5-.8-72.7-37.5-.4-2.7z"/><path class="st2" d="M151.9 152.7c-2.2 39.9-36.4 70.5-76.3 68.2-39.9-2.2-70.5-36.4-68.2-76.3 2.2-39.9 36.4-70.5 76.3-68.2 39.9 2.2 70.4 36.4 68.2 76.3"/><path class="st1" d="M145 117.6c-12.4 3.1-38.1 9.4-39.1 9.7H37.8v-8c22-3.9 57.5-7.1 107.1-1.8-.7-1.5-1.5-3-2.4-4.5-75.9-7.7-117.8 4-129.8 8.1-.7 1.7-1.3 3.4-1.9 5.2l.1-.1c-.1 24.7 2.7 44.2 6.2 59.2 2.1 3.6 4.6 7.1 7.3 10.2-5-15.8-9.5-39.1-9.3-70.9 6-1.9 12.2-3.5 18.4-4.7-.6 53.3 12.2 83.7 18.7 95.6 2 .9 4.1 1.6 6.3 2.2-2.5-3.8-9.8-16.8-15.1-40.1l68.7 35.5c2.9-1.4 5.6-3.1 8.3-4.9l27.9-82.7c-.9-2.7-2-5.4-3.3-8m-17.3-23.1c-2.1-1.8-4.2-3.5-6.4-5.1-42.1-5-72-.3-87.9 3.6-2.4 2-4.6 4.1-6.7 6.3 12.3-3.8 47.7-12.2 101-4.8"/><path class="st3" d="M106.4 130.7l-68.2-.1v2.1c0 .6.1 14.7 4.2 39.8l.2 1 73.3 37.8 30.5-90.6-40 10m-11.9 21.6c-8-1.1-10.1-2-10.1-3.5v-.2c0-1.3 1.7-2.2 5.5-2.2 7.9 0 15.7 1.8 22.8 5.3l12.4-12.2c-4.7-2.6-9.8-4.5-15.1-5.6l30-7.4c-1.1 3.2-7.3 21.8-13.5 40.1-2.3-8.5-14.6-12-32-14.3m-52.1-17.5h30.4c-9.3 3.1-14.2 8.9-14.2 15.6v.1c0 11.4 15 14.9 32 17.3 8.1 1.1 10.5 2 10.5 3.5v.1c0 1.5-2 2.3-6.5 2.3-9.2.1-18.4-2.1-26.6-6.3l-10.6 9-11.1-5.7c-2-11.8-3.3-23.8-3.9-35.9m71.1 70.7c-2-1.1-19.4-10-36-18.6 5.3.8 10.6 1.2 15.9 1.2 12.9 0 23-2.8 28.6-7.7-4.4 13-7.9 23.6-8.5 25.1"/></svg>